<?xml version="1.0" standalone="no"?>
<!DOCTYPE svg PUBLIC "-//W3C//DTD SVG 20010904//EN"
 "http://www.w3.org/TR/2001/REC-SVG-20010904/DTD/svg10.dtd">
<svg version="1.0" xmlns="http://www.w3.org/2000/svg"
 width="600.000000pt" height="600.000000pt" viewBox="0 0 600.000000 600.000000"
 preserveAspectRatio="xMidYMid meet">
<metadata>
Created by potrace 1.15, written by Peter Selinger 2001-2017
</metadata>
<g transform="translate(0.000000,600.000000) scale(0.100000,-0.100000)"
fill="#000000" stroke="none">
<path d="M0 3000 l0 -3000 3000 0 3000 0 0 3000 0 3000 -3000 0 -3000 0 0
-3000z m454 1474 c27 -74 53 -137 57 -140 4 -2 42 59 84 136 l77 140 153 0
153 0 77 -141 c42 -77 80 -138 83 -134 4 3 30 65 58 138 l51 132 152 3 c83 1
151 -1 151 -6 0 -9 -188 -439 -214 -490 l-17 -33 -156 3 -157 3 -87 153 c-47
84 -89 155 -91 158 -3 3 -36 -50 -74 -118 -37 -68 -78 -140 -91 -161 l-24 -38
-156 3 -157 3 -49 110 c-27 61 -78 174 -113 252 -35 79 -64 147 -64 153 0 6
55 10 153 10 l152 0 49 -136z m2029 -115 c104 -138 191 -257 194 -265 4 -12
-21 -14 -161 -14 l-166 0 -28 45 -27 45 -177 0 -177 0 -31 -45 -31 -45 -160 0
c-115 0 -160 3 -157 11 2 7 89 126 193 265 l189 254 176 0 175 0 188 -251z
m449 243 c6 -14 185 -162 196 -162 5 0 56 38 111 85 l101 85 178 -2 177 -3
-202 -153 -203 -152 0 -110 0 -110 -162 2 -163 3 -1 108 c0 60 -5 112 -10 115
-75 53 -380 287 -382 293 -4 11 355 12 360 1z m1206 -21 c20 -16 108 -81 195
-145 l157 -116 0 145 0 145 155 0 155 0 -2 -262 -3 -263 -151 -3 -151 -3 -189
140 c-104 76 -193 137 -197 134 -4 -3 -7 -64 -6 -136 l1 -132 -151 -3 -151 -3
0 266 0 265 151 0 150 0 37 -29z m1732 -31 l0 -60 -267 -2 -267 -3 0 -35 0
-35 247 -3 247 -2 0 -55 0 -55 -247 -2 -246 -3 0 -45 0 -45 271 -3 272 -2 0
-60 0 -60 -435 0 -435 0 0 265 0 265 430 0 430 0 0 -60z m-3250 -685 l0 -55
-91 0 c-90 0 -123 -9 -146 -39 -9 -12 -12 -158 -13 -608 l0 -593 38 -24 c48
-31 162 -66 216 -66 58 0 133 24 162 51 l24 22 0 246 c0 135 3 432 7 659 l6
412 167 0 167 0 6 -67 c4 -38 7 -187 8 -333 0 -146 4 -412 7 -592 8 -374 4
-356 101 -384 92 -27 216 -6 304 52 l37 24 0 596 0 595 -25 24 c-22 23 -32 25
-118 25 -51 0 -96 2 -98 4 -2 2 -2 27 -1 55 l4 51 417 0 417 0 -1 -151 -1
-152 -61 -47 c-33 -27 -64 -57 -69 -67 -5 -10 -11 -238 -14 -508 l-5 -490
-155 -62 c-198 -80 -529 -245 -738 -368 -89 -52 -169 -95 -176 -95 -8 0 -84
40 -170 88 -201 115 -477 253 -713 356 l-188 83 -5 496 -5 496 -29 30 c-16 17
-47 43 -68 57 l-38 27 0 153 0 154 420 0 420 0 0 -55z m-1045 -960 l0 -50
-697 -3 -698 -2 0 55 0 55 698 -2 697 -3 0 -50z m4215 0 l0 -55 -695 0 -695 0
0 55 0 55 695 0 695 0 0 -55z m-5262 -1078 c3 -14 -11 -17 -95 -19 l-98 -3 0
-35 0 -35 98 -3 c72 -2 97 -6 94 -15 -2 -8 -37 -14 -98 -17 l-94 -5 0 -40 0
-40 98 -3 c77 -2 97 -6 97 -17 0 -12 -21 -15 -120 -15 l-120 0 0 133 0 133
118 -1 c99 -2 117 -4 120 -18z m434 -90 l93 -107 5 107 c5 107 5 108 30 108
l25 0 3 -132 3 -133 -40 0 c-37 0 -43 5 -132 107 l-94 107 -3 -108 -3 -107
-27 3 -27 3 -3 124 c-3 134 -1 139 48 137 24 -1 46 -20 122 -109z m686 90 c3
-13 -7 -17 -55 -19 l-58 -3 -3 -112 c-3 -113 -3 -113 -27 -113 l-25 0 0 115 0
115 -60 0 c-43 0 -60 4 -60 13 0 8 2 16 4 18 3 2 67 4 143 4 120 -1 138 -3
141 -18z m490 -1 c3 -14 -9 -16 -91 -16 -51 0 -96 -2 -98 -5 -3 -2 -3 -20 -1
-40 l4 -35 89 0 c72 0 89 -3 89 -15 0 -12 -16 -15 -88 -15 -49 0 -91 -2 -93
-4 -3 -3 -3 -23 -1 -45 l4 -41 94 0 c77 0 94 -3 94 -15 0 -13 -21 -15 -125
-15 l-125 0 0 128 c0 71 2 131 5 134 3 3 58 4 123 3 100 -2 117 -5 120 -19z
m538 -7 c28 -27 32 -74 7 -101 -13 -14 -14 -21 -5 -30 7 -7 12 -34 12 -60 0
-45 -2 -48 -25 -48 -22 0 -25 4 -25 38 0 55 -12 62 -107 62 l-83 0 0 -50 c0
-47 -2 -50 -25 -50 l-25 0 0 128 c0 71 2 131 5 134 3 2 60 3 126 2 110 -3 124
-5 145 -25z m531 17 c42 -13 56 -88 24 -127 -17 -22 -29 -25 -118 -29 l-98 -5
-3 -47 c-3 -43 -5 -48 -28 -48 l-24 0 0 129 c0 95 3 130 13 134 18 6 211 0
234 -7z m521 5 c53 -3 84 -88 46 -126 -15 -15 -15 -17 0 -34 9 -10 16 -35 16
-59 0 -40 -2 -42 -29 -42 -28 0 -30 2 -33 48 l-3 47 -87 3 -88 3 0 -51 c0 -49
-1 -50 -30 -50 l-30 0 0 128 c0 71 2 131 4 133 4 3 171 4 234 0z m903 -20 c10
-13 19 -29 19 -37 0 -22 -48 -17 -60 6 -9 17 -21 20 -78 20 -70 0 -92 -10 -92
-42 0 -26 39 -38 120 -38 93 0 115 -19 111 -98 -1 -14 -13 -30 -33 -43 -28
-17 -47 -20 -119 -17 -98 3 -129 20 -129 70 0 23 4 28 25 28 17 0 25 -5 25
-18 0 -32 22 -42 90 -42 71 0 90 10 90 47 0 32 -28 43 -114 43 -63 0 -80 4
-96 20 -25 25 -27 81 -2 102 28 25 42 27 135 25 80 -2 91 -4 108 -26z m527 7
c3 -16 -6 -18 -92 -18 l-96 0 0 -40 0 -40 96 0 c72 0 95 -3 92 -12 -3 -9 -34
-14 -96 -16 l-92 -3 0 -44 0 -45 95 0 c78 0 95 -3 95 -15 0 -13 -21 -15 -125
-15 l-125 0 0 128 c0 71 2 131 4 133 2 2 58 4 123 4 104 0 118 -2 121 -17z
m491 7 c26 -13 41 -33 41 -56 0 -18 -49 -9 -60 11 -9 17 -21 20 -85 20 -72 0
-75 -1 -81 -27 -10 -39 16 -53 100 -53 98 0 120 -13 124 -73 3 -43 1 -48 -30
-67 -28 -18 -46 -21 -120 -18 -96 3 -125 18 -130 68 -3 21 2 26 25 28 21 3 27
-1 27 -15 0 -33 21 -43 90 -43 71 0 90 10 90 47 0 31 -23 40 -104 42 -86 2
-120 16 -124 55 -6 46 6 74 35 84 43 16 170 14 202 -3z"/>
<path d="M2062 4376 c-29 -47 -52 -87 -52 -90 0 -3 47 -6 105 -6 61 0 105 4
105 10 0 9 -99 170 -104 170 -2 0 -26 -38 -54 -84z"/>
<path d="M2457 1804 c-4 -4 -7 -25 -7 -46 l0 -39 93 3 92 3 0 40 0 40 -85 3
c-47 1 -89 0 -93 -4z"/>
<path d="M3017 1804 c-4 -4 -7 -25 -7 -46 l0 -38 85 0 c80 0 86 2 94 23 5 12
5 31 1 42 -6 17 -18 20 -87 23 -43 1 -82 0 -86 -4z"/>
<path d="M3550 1765 l0 -45 83 0 c87 0 107 8 107 45 0 37 -20 45 -107 45 l-83
0 0 -45z"/>
</g>
</svg>
