 <svg version="1.0" xmlns="http://www.w3.org/2000/svg" width="700.000000pt" height="700.000000pt" viewBox="0 0 700.000000 700.000000" preserveAspectRatio="xMidYMid meet">
<metadata>
Created by potrace 1.12, written by Peter Selinger 2001-2015
</metadata>
<g transform="translate(0.000000,700.000000) scale(0.100000,-0.100000)" fill="#000000" stroke="none">
<path d="M0 3500 l0 -3500 3500 0 3500 0 0 3500 0 3500 -3500 0 -3500 0 0
-3500z m2063 2350 c54 -21 89 -54 420 -387 223 -223 369 -363 381 -363 12 0
110 90 251 230 279 276 292 285 450 285 154 0 183 -18 449 -281 117 -117 223
-217 235 -224 17 -9 26 -9 39 1 9 7 172 167 362 356 190 188 354 349 365 358
11 8 51 25 89 36 55 17 83 21 140 16 114 -10 159 -30 241 -111 114 -110 110
-85 110 -701 l0 -510 -28 -68 c-27 -66 -42 -83 -545 -586 -284 -285 -536 -530
-558 -545 -82 -53 -219 -71 -318 -41 -71 22 -130 70 -350 289 -173 172 -222
216 -239 216 -2 0 -99 -94 -214 -208 -116 -114 -229 -223 -253 -242 -113 -89
-303 -93 -426 -9 -27 18 -279 264 -561 546 -511 513 -511 513 -540 586 l-28
72 0 505 c0 471 1 509 19 560 70 202 301 301 509 220z m-799 -3216 c3 -9 6
-141 6 -294 0 -266 1 -280 19 -290 28 -15 116 -13 130 3 7 9 12 110 13 303 l3
289 114 3 c85 2 117 -1 123 -10 4 -7 8 -140 8 -295 0 -269 1 -283 19 -293 28
-15 116 -13 130 3 7 9 12 110 13 303 l3 289 116 3 c114 3 117 2 122 -20 3 -13
6 -163 7 -334 0 -358 14 -308 -122 -444 -45 -45 -92 -86 -105 -91 -14 -5 -64
-9 -113 -9 l-89 0 -52 45 c-56 51 -48 52 -122 -12 -37 -33 -38 -33 -139 -33
l-101 0 -111 110 -111 109 -1 297 c-1 162 1 316 4 340 l5 44 112 0 c94 0 114
-3 119 -16z m1840 0 c3 -9 6 -206 6 -439 0 -394 -1 -425 -17 -434 -15 -7 -156
-9 -210 -3 -10 2 -13 33 -13 121 0 66 -3 126 -6 135 -5 13 -23 16 -95 16 l-89
0 0 -124 c0 -157 1 -156 -121 -156 -143 0 -129 -50 -129 454 0 238 3 436 7
439 3 4 154 7 334 7 289 0 328 -2 333 -16z m611 -108 c33 -66 65 -121 72 -123
7 -3 34 41 64 104 28 59 59 116 67 126 13 14 34 17 144 17 148 0 146 2 97 -88
-17 -31 -44 -79 -59 -107 -48 -88 -96 -177 -149 -278 l-51 -97 0 -159 c0 -136
-2 -160 -16 -165 -29 -11 -189 -7 -202 6 -8 8 -12 61 -12 171 l0 159 -51 96
c-29 54 -64 120 -79 147 -88 161 -158 304 -152 309 3 4 65 5 136 4 l131 -3 60
-119z m1067 9 c43 -60 99 -141 124 -178 26 -38 50 -65 55 -60 5 5 10 85 11
178 l3 170 110 0 110 0 3 -439 c2 -345 0 -441 -10 -448 -7 -4 -56 -8 -109 -8
-115 0 -94 -18 -249 213 -77 113 -116 163 -122 155 -4 -7 -8 -90 -8 -184 0
-147 -2 -173 -16 -178 -25 -10 -170 -7 -198 4 l-26 10 0 428 c0 325 3 431 12
440 9 9 46 12 123 10 l110 -3 77 -110z m1316 4 c2 -80 -1 -109 -11 -117 -8 -7
-69 -13 -153 -14 l-139 -3 -3 -37 c-4 -46 -1 -47 163 -51 l120 -2 0 -110 0
-110 -120 -2 c-166 -4 -167 -4 -163 -56 l3 -42 148 -5 c95 -3 150 -9 155 -16
4 -7 6 -57 4 -112 -3 -93 -5 -100 -25 -106 -39 -10 -487 -7 -508 4 -18 10 -19
26 -19 438 0 323 3 431 12 440 9 9 79 12 273 10 l260 -3 3 -106z m-4019 -1273
c14 -16 -1 -31 -41 -41 -38 -10 -50 -28 -46 -71 3 -38 11 -45 62 -60 38 -12
44 -31 13 -45 -37 -17 -95 -2 -129 31 -52 53 -32 163 36 190 33 14 92 11 105
-4z m323 -13 c45 -46 41 -157 -7 -189 -62 -41 -160 -22 -190 37 -29 55 -4 141
47 165 45 20 124 13 150 -13z m304 6 c19 -11 35 -24 35 -27 1 -4 3 -46 4 -94
2 -88 1 -88 -24 -88 -14 0 -38 12 -53 27 l-29 27 -24 -29 c-20 -25 -27 -28
-42 -19 -15 9 -19 27 -21 100 -3 81 -1 91 19 107 29 23 94 22 135 -4z m351
-16 c13 -15 23 -38 23 -49 0 -33 -37 -72 -79 -84 -22 -6 -46 -21 -55 -35 -18
-27 -45 -32 -64 -13 -7 7 -12 44 -12 95 0 71 3 86 21 104 19 19 29 21 83 16
51 -5 64 -10 83 -34z m289 27 c46 -18 64 -47 64 -105 0 -64 -24 -100 -81 -116
-82 -25 -159 28 -159 109 0 89 88 145 176 112z m356 -17 c14 -15 21 -32 19
-52 -3 -41 -3 -79 1 -116 4 -43 -33 -47 -74 -8 l-30 28 -22 -27 c-23 -30 -45
-35 -64 -16 -19 19 -16 168 4 197 15 21 23 23 81 19 48 -3 69 -9 85 -25z m633
13 c18 -13 18 -15 -13 -42 -28 -27 -31 -35 -34 -99 l-3 -70 -30 0 c-34 0 -42
20 -44 111 -1 44 -4 52 -26 62 -24 11 -32 31 -18 45 13 13 149 7 168 -7z m503
-2 c52 -36 69 -130 31 -177 -23 -31 -88 -51 -130 -42 -16 4 -43 18 -59 32 -26
22 -30 31 -30 78 0 56 23 99 64 115 34 14 100 11 124 -6z m-836 -34 c9 -19 27
-64 39 -98 19 -59 20 -65 5 -80 -14 -15 -18 -14 -47 7 -32 24 -48 24 -106 0
-46 -19 -63 -2 -44 44 7 17 22 57 33 87 26 72 35 82 72 78 24 -2 35 -11 48
-38z m529 19 c15 -28 8 -174 -9 -191 -9 -9 -17 -10 -30 -2 -14 9 -18 29 -20
99 -2 49 -1 94 2 102 8 20 44 15 57 -8z m559 -4 c13 -14 30 -25 37 -25 7 0 19
11 25 25 12 26 51 35 63 15 4 -6 7 -51 7 -101 1 -67 -3 -94 -14 -105 -19 -20
-58 -5 -81 30 -22 33 -33 33 -49 -1 -9 -20 -21 -28 -38 -28 -23 0 -26 5 -31
55 -6 50 -3 116 7 148 6 21 49 13 74 -13z"></path>
<path d="M1922 5433 c-9 -23 -9 -750 0 -783 10 -34 923 -950 947 -950 17 0
351 328 388 380 12 16 13 29 7 46 -7 20 -966 988 -1246 1260 -70 68 -84 75
-96 47z"></path>
<path d="M4513 4788 c-364 -365 -663 -667 -663 -672 0 -28 385 -416 413 -416
9 0 224 209 479 465 361 362 465 472 470 498 9 37 9 705 1 755 -3 20 -11 32
-21 32 -9 0 -314 -298 -679 -662z"></path>
<path d="M3348 5022 c-109 -109 -198 -203 -198 -211 0 -13 181 -204 320 -338
82 -79 107 -88 143 -50 114 120 196 202 226 229 63 55 131 138 131 161 0 29
-377 407 -406 407 -11 0 -97 -78 -216 -198z"></path>
<path d="M2680 2340 l0 -70 89 0 c106 0 108 2 92 133 -1 4 -41 7 -91 7 l-90 0
0 -70z"></path>
<path d="M2282 1208 c-7 -7 -12 -29 -12 -50 0 -28 5 -40 21 -49 29 -15 67 3
75 36 13 52 -49 98 -84 63z"></path>
<path d="M2630 1200 c0 -5 6 -10 14 -10 8 0 18 5 21 10 3 6 -3 10 -14 10 -12
0 -21 -4 -21 -10z"></path>
<path d="M2955 1199 c-10 -15 1 -23 20 -15 9 3 13 10 10 16 -8 13 -22 13 -30
-1z"></path>
<path d="M3250 1200 c-17 -32 -2 -89 25 -96 39 -10 65 12 65 54 0 21 -5 43
-12 50 -19 19 -66 15 -78 -8z"></path>
<path d="M3600 1200 c0 -5 9 -10 20 -10 11 0 20 5 20 10 0 6 -9 10 -20 10 -11
0 -20 -4 -20 -10z"></path>
<path d="M4736 1204 c-25 -24 -20 -71 9 -90 31 -20 61 -11 69 22 17 64 -36
110 -78 68z"></path>
</g>
</svg>